<svg height="auto" viewBox="0 0 2000 1400" xmlns="http://www.w3.org/2000/svg"><path d="M0 1385.196c21-9.465 63-34.2 105-47.321 42-13.122 63 3.363 105-18.29 42-21.65 63-63.5 105-89.969 42-26.47 63-31.271 105-42.379 42-11.107 63 3.482 105-13.159 42-16.64 63-41.261 105-70.046 42-28.784 63-27.488 105-73.875s63-110.363 105-158.059 63-84.093 105-80.421c42 3.672 63 62.366 105 98.78 42 36.415 63 134.046 105 83.293 42-50.753 63-294.81 105-337.059 42-42.248 63 149.107 105 125.82 42-23.288 63-258.638 105-242.257 42 16.381 63 373.468 105 324.163 42-49.305 63-492.696 105-570.688 42-77.991 63 100.353 105 180.73 42 80.376 63 310.758 105 221.154 42-89.604 84-535.339 105-669.174L2000 1400H0Z" fill="#444cf71a"/><path d="M0 1385.196c21-9.465 63-34.2 105-47.321 42-13.122 63 3.363 105-18.29 42-21.65 63-63.5 105-89.969 42-26.47 63-31.271 105-42.379 42-11.107 63 3.482 105-13.159 42-16.64 63-41.261 105-70.046 42-28.784 63-27.488 105-73.875s63-110.363 105-158.059 63-84.093 105-80.421c42 3.672 63 62.366 105 98.78 42 36.415 63 134.046 105 83.293 42-50.753 63-294.81 105-337.059 42-42.248 63 149.107 105 125.82 42-23.288 63-258.638 105-242.257 42 16.381 63 373.468 105 324.163 42-49.305 63-492.696 105-570.688 42-77.991 63 100.353 105 180.73 42 80.376 63 310.758 105 221.154 42-89.604 84-535.339 105-669.174" fill="none" stroke="#444cf7" stroke-width="4"/><g fill="#444cf7"><circle cy="1385.196" r="8"/><circle cx="105" cy="1337.875" r="8"/><circle cx="210" cy="1319.586" r="8"/><circle cx="315" cy="1229.616" r="8"/><circle cx="420" cy="1187.237" r="8"/><circle cx="525" cy="1174.078" r="8"/><circle cx="630" cy="1104.032" r="8"/><circle cx="735" cy="1030.157" r="8"/><circle cx="840" cy="872.098" r="8"/><circle cx="945" cy="791.677" r="8"/><circle cx="1050" cy="890.457" r="8"/><circle cx="1155" cy="973.75" r="8"/><circle cx="1260" cy="636.691" r="8"/><circle cx="1365" cy="762.51" r="8"/><circle cx="1470" cy="520.254" r="8"/><circle cx="1575" cy="844.417" r="8"/><circle cx="1680" cy="273.729" r="8"/><circle cx="1785" cy="454.458" r="8"/><circle cx="1890" cy="675.613" r="8"/><circle cx="1995" cy="6.439" r="8"/></g></svg>