<?xml version="1.0" standalone="no"?><!DOCTYPE svg PUBLIC "-//W3C//DTD SVG 1.1//EN" "http://www.w3.org/Graphics/SVG/1.1/DTD/svg11.dtd"><svg xmlns:xlink="http://www.w3.org/1999/xlink" version="1.1" class="highcharts-root" style="font-family: Roboto; font-size: 12px;" xmlns="http://www.w3.org/2000/svg" width="650" height="400" viewBox="0 0 650 400" aria-label="Interactive chart" aria-hidden="false"><desc aria-hidden="true">Created with Highcharts 10.3.1</desc><defs aria-hidden="true"><clipPath id="highcharts-32w5p97-112-"><rect x="0" y="0" width="630" height="300" fill="none"></rect></clipPath></defs><rect fill="#ffffff" class="highcharts-background" x="0" y="0" width="650" height="400" rx="0" ry="0" aria-hidden="true"></rect><rect fill="none" class="highcharts-plot-background" x="10" y="47" width="630" height="300" aria-hidden="true"></rect><g class="highcharts-pane-group" data-z-index="0" aria-hidden="true"></g><rect fill="none" class="highcharts-plot-border" data-z-index="1" x="10" y="47" width="630" height="300" aria-hidden="true"></rect><g class="highcharts-series-group" data-z-index="3" aria-hidden="false"><g class="highcharts-series highcharts-series-0 highcharts-pie-series" data-z-index="0.1" opacity="1" transform="translate(10,47) scale(1 1)" clip-path="none" aria-hidden="false"><path fill="red" d="M 314.97678125477876 36.00000236451814 A 114 114 0 0 1 336.05913034991846 262.0379981475264 L 315 150 A 0 0 0 0 0 315 150 Z" transform="translate(0,0)" stroke="#ffffff" stroke-width="1" opacity="1" stroke-linejoin="round" class="highcharts-point highcharts-color-0" tabindex="-1" role="img" aria-label="Direct, 80." style="outline: none;"></path><path fill="blue" d="M 335.94708184087966 262.0590012553721 A 114 114 0 0 1 212.92134233922377 99.24620555885454 L 315 150 A 0 0 0 0 0 315 150 Z" transform="translate(0,0)" stroke="#ffffff" stroke-width="1" opacity="1" stroke-linejoin="round" class="highcharts-point highcharts-color-1" tabindex="-1" role="img" aria-label="Affiliate, 60." style="outline: none;"></path><path fill="green" d="M 212.9721471645305 99.14415229510199 A 114 114 0 0 1 314.84165628705983 36.000109968173334 L 315 150 A 0 0 0 0 0 315 150 Z" transform="translate(0,0)" stroke="#ffffff" stroke-width="1" opacity="1" stroke-linejoin="round" class="highcharts-point highcharts-color-2" tabindex="-1" role="img" aria-label="Sponsored, 30." style="outline: none;"></path></g><g class="highcharts-markers highcharts-series-0 highcharts-pie-series" data-z-index="0.1" opacity="1" transform="translate(10,47) scale(1 1)" clip-path="none" aria-hidden="true"></g></g><text x="325" text-anchor="middle" class="highcharts-title" data-z-index="4" style="color: rgb(51, 51, 51); font-size: 18px; fill: rgb(51, 51, 51);" y="24" aria-hidden="true">Total Sales</text><text x="325" text-anchor="middle" class="highcharts-subtitle" data-z-index="4" style="color: rgb(102, 102, 102); fill: rgb(102, 102, 102);" y="46" aria-hidden="true"></text><text x="10" text-anchor="start" class="highcharts-caption" data-z-index="4" style="color: rgb(102, 102, 102); fill: rgb(102, 102, 102);" y="397" aria-hidden="true"></text><g class="highcharts-data-labels highcharts-series-0 highcharts-pie-series" data-z-index="6" opacity="1" transform="translate(10,47) scale(1 1)" aria-hidden="true"><path fill="none" class="highcharts-data-label-connector highcharts-color-0" stroke="red" stroke-width="1" d="M 463.385721386485 136.71335623728447 C 458.385721386485 136.71335623728447 440.46250621317427 138.3741867076239 434.4881011554041 138.92779686440372 L 428.5136960976339 139.48140702118354"></path><path fill="none" class="highcharts-data-label-connector highcharts-color-1" stroke="blue" stroke-width="1" d="M 195.08551927164552 236.77938763861295 C 200.08551927164552 236.77938763861295 214.44982936268985 225.9319641837863 219.2379327263713 222.31615636551078 L 224.02603609005274 218.70034854723525"></path><path fill="none" class="highcharts-data-label-connector highcharts-color-2" stroke="green" stroke-width="1" d="M 234.19376854566073 27.568732454935585 C 239.19376854566073 27.568732454935585 248.66954747745314 42.87264089806864 251.82814045471727 47.97394371244632 L 254.9867334319814 53.075246526824"></path><g class="highcharts-label highcharts-data-label highcharts-data-label-color-0" data-z-index="1" transform="translate(468,127)" style="cursor: pointer;"><text x="5" data-z-index="1" y="16" style="color: rgb(0, 0, 0); font-size: 11px; font-weight: bold; fill: rgb(0, 0, 0);"><tspan style="font-weight: bold;">Direct</tspan>: 47.1 %</text></g><g class="highcharts-label highcharts-data-label highcharts-data-label-color-1" data-z-index="1" transform="translate(102,227)" style="cursor: pointer;"><text x="5" data-z-index="1" y="16" style="color: rgb(0, 0, 0); font-size: 11px; font-weight: bold; fill: rgb(0, 0, 0);"><tspan style="font-weight: bold;">Affiliate</tspan>: 35.3 %</text></g><g class="highcharts-label highcharts-data-label highcharts-data-label-color-2" data-z-index="1" transform="translate(127,18)" style="cursor: pointer;"><text x="5" data-z-index="1" y="16" style="color: rgb(0, 0, 0); font-size: 11px; font-weight: bold; fill: rgb(0, 0, 0);"><tspan style="font-weight: bold;">Sponsored</tspan>: 17.6 %</text></g></g><g class="highcharts-legend highcharts-no-tooltip" data-z-index="7" transform="translate(197,359)" aria-hidden="true"><rect fill="none" class="highcharts-legend-box" rx="0" ry="0" x="0" y="0" width="256" height="26"></rect><g data-z-index="1"><g><g class="highcharts-legend-item highcharts-pie-series highcharts-color-0" data-z-index="1" transform="translate(8,3)"><text x="21" text-anchor="start" data-z-index="2" y="15" style="color: rgb(51, 51, 51); cursor: pointer; font-size: 12px; font-weight: bold; fill: rgb(51, 51, 51);">Direct</text><rect x="2" y="4" width="12" height="12" fill="red" rx="6" ry="6" class="highcharts-point" data-z-index="3"></rect></g><g class="highcharts-legend-item highcharts-pie-series highcharts-color-1" data-z-index="1" transform="translate(82.369140625,3)"><text x="21" y="15" text-anchor="start" data-z-index="2" style="color: rgb(51, 51, 51); cursor: pointer; font-size: 12px; font-weight: bold; fill: rgb(51, 51, 51);">Affiliate</text><rect x="2" y="4" width="12" height="12" fill="blue" rx="6" ry="6" class="highcharts-point" data-z-index="3"></rect></g><g class="highcharts-legend-item highcharts-pie-series highcharts-color-2" data-z-index="1" transform="translate(167.7109375,3)"><text x="21" y="15" text-anchor="start" data-z-index="2" style="color: rgb(51, 51, 51); cursor: pointer; font-size: 12px; font-weight: bold; fill: rgb(51, 51, 51);">Sponsored</text><rect x="2" y="4" width="12" height="12" fill="green" rx="6" ry="6" class="highcharts-point" data-z-index="3"></rect></g></g></g></g><text x="640" class="highcharts-credits" text-anchor="end" data-z-index="8" y="395" style="cursor: pointer; color: rgb(153, 153, 153); font-size: 9px; fill: rgb(153, 153, 153);" aria-label="Chart credits: Highcharts.com" aria-hidden="false">Highcharts.com</text></svg>